<?xml version="1.0" standalone="no"?>
<!DOCTYPE svg PUBLIC "-//W3C//DTD SVG 20010904//EN"
 "http://www.w3.org/TR/2001/REC-SVG-20010904/DTD/svg10.dtd">
<svg version="1.0" xmlns="http://www.w3.org/2000/svg"
 width="126.000000pt" height="126.000000pt" viewBox="0 0 126.000000 126.000000"
 preserveAspectRatio="xMidYMid meet">
<metadata>
Created by potrace 1.16, written by Peter Selinger 2001-2019
</metadata>
<g transform="translate(0.000000,126.000000) scale(0.100000,-0.100000)"
fill="#213f7d" stroke="none">
<path d="M581 746 c-45 -14 -72 -53 -78 -109 -8 -66 3 -96 38 -111 l31 -13
-42 -7 c-30 -5 -53 -17 -79 -43 -20 -20 -66 -52 -104 -71 -37 -19 -71 -42 -76
-51 -5 -9 -11 -73 -13 -144 l-5 -127 295 0 c276 0 294 1 287 18 -12 30 -26
133 -20 151 2 9 32 27 66 41 79 31 143 72 165 105 17 26 17 26 -27 71 -24 25
-60 55 -79 67 -19 11 -55 38 -79 59 -24 21 -47 38 -52 38 -7 0 -59 -87 -59
-100 0 -4 28 -26 62 -49 58 -39 60 -41 30 -41 -29 0 -62 21 -62 41 0 15 -59
10 -86 -7 -23 -16 -25 -15 -49 10 l-24 26 27 0 c27 1 27 1 -5 15 -38 16 -43
35 -10 35 17 1 12 6 -21 22 -27 13 -40 24 -34 30 6 6 17 6 30 -1 11 -6 27 -11
34 -10 7 0 -2 7 -19 15 -38 16 -40 22 -15 40 24 19 82 17 104 -3 17 -15 18
-15 18 11 0 31 -24 71 -48 81 -46 19 -70 22 -101 11z"/>
</g>
</svg>
